<svg xmlns="http://www.w3.org/2000/svg" xmlns:xlink="http://www.w3.org/1999/xlink" width="1024" zoomAndPan="magnify" viewBox="0 0 768 185.999996" height="248" preserveAspectRatio="xMidYMid meet" version="1.0"><defs><g/></defs><rect x="-76.8" width="921.6" fill="#ffffff" y="-18.6" height="223.199995" fill-opacity="1"/><rect x="-76.8" width="921.6" fill="#000000" y="-18.6" height="223.199995" fill-opacity="1"/><g fill="#ffffff" fill-opacity="1"><g transform="translate(18.600007, 133.096278)"><g><path d="M 41.703125 0 L 23.578125 0 L 1.15625 -60.609375 L 17.09375 -60.609375 L 32.140625 -17.421875 L 33.40625 -17.421875 L 48.53125 -60.609375 L 64.078125 -60.609375 Z M 41.703125 0 "/></g></g></g><g fill="#ffffff" fill-opacity="1"><g transform="translate(83.762714, 133.096278)"><g><path d="M 59.90625 -26.875 L 20.9375 -26.875 C 21.375 -21.59375 22.875 -17.753906 25.4375 -15.359375 C 28.007812 -12.960938 31.507812 -11.765625 35.9375 -11.765625 C 39.414062 -11.765625 42.234375 -12.410156 44.390625 -13.703125 C 46.554688 -15.003906 48.300781 -16.976562 49.625 -19.625 L 50.78125 -19.625 L 60.890625 -13.140625 C 58.910156 -8.890625 55.921875 -5.441406 51.921875 -2.796875 C 47.929688 -0.160156 42.601562 1.15625 35.9375 1.15625 C 29.675781 1.15625 24.265625 -0.03125 19.703125 -2.40625 C 15.140625 -4.789062 11.617188 -8.335938 9.140625 -13.046875 C 6.671875 -17.753906 5.4375 -23.5 5.4375 -30.28125 C 5.4375 -37.164062 6.738281 -42.972656 9.34375 -47.703125 C 11.945312 -52.429688 15.460938 -55.957031 19.890625 -58.28125 C 24.328125 -60.601562 29.3125 -61.765625 34.84375 -61.765625 C 43.414062 -61.765625 49.984375 -59.492188 54.546875 -54.953125 C 59.109375 -50.410156 61.390625 -43.742188 61.390625 -34.953125 C 61.390625 -31.765625 61.273438 -29.289062 61.046875 -27.53125 Z M 46.828125 -36.703125 C 46.671875 -41.328125 45.59375 -44.691406 43.59375 -46.796875 C 41.601562 -48.898438 38.6875 -49.953125 34.84375 -49.953125 C 27.144531 -49.953125 22.617188 -45.535156 21.265625 -36.703125 Z M 46.828125 -36.703125 "/></g></g></g><g fill="#ffffff" fill-opacity="1"><g transform="translate(149.639683, 133.096278)"><g><path d="M 8.734375 0 L 8.734375 -60.609375 L 23.515625 -60.609375 L 23.515625 -51.609375 L 24.671875 -51.375 C 26.140625 -54.75 28.0625 -57.222656 30.4375 -58.796875 C 32.820312 -60.378906 35.71875 -61.171875 39.125 -61.171875 C 42.570312 -61.171875 45.191406 -60.582031 46.984375 -59.40625 L 44.40625 -46.265625 L 43.25 -46.046875 C 42.257812 -46.453125 41.304688 -46.742188 40.390625 -46.921875 C 39.472656 -47.109375 38.359375 -47.203125 37.046875 -47.203125 C 32.796875 -47.203125 29.550781 -45.707031 27.3125 -42.71875 C 25.070312 -39.738281 23.953125 -34.953125 23.953125 -28.359375 L 23.953125 0 Z M 8.734375 0 "/></g></g></g><g fill="#ffffff" fill-opacity="1"><g transform="translate(197.165603, 133.096278)"><g><path d="M 41.703125 0 L 23.578125 0 L 1.15625 -60.609375 L 17.09375 -60.609375 L 32.140625 -17.421875 L 33.40625 -17.421875 L 48.53125 -60.609375 L 64.078125 -60.609375 Z M 41.703125 0 "/></g></g></g><g fill="#ffffff" fill-opacity="1"><g transform="translate(262.328309, 133.096278)"><g><path d="M 59.90625 -26.875 L 20.9375 -26.875 C 21.375 -21.59375 22.875 -17.753906 25.4375 -15.359375 C 28.007812 -12.960938 31.507812 -11.765625 35.9375 -11.765625 C 39.414062 -11.765625 42.234375 -12.410156 44.390625 -13.703125 C 46.554688 -15.003906 48.300781 -16.976562 49.625 -19.625 L 50.78125 -19.625 L 60.890625 -13.140625 C 58.910156 -8.890625 55.921875 -5.441406 51.921875 -2.796875 C 47.929688 -0.160156 42.601562 1.15625 35.9375 1.15625 C 29.675781 1.15625 24.265625 -0.03125 19.703125 -2.40625 C 15.140625 -4.789062 11.617188 -8.335938 9.140625 -13.046875 C 6.671875 -17.753906 5.4375 -23.5 5.4375 -30.28125 C 5.4375 -37.164062 6.738281 -42.972656 9.34375 -47.703125 C 11.945312 -52.429688 15.460938 -55.957031 19.890625 -58.28125 C 24.328125 -60.601562 29.3125 -61.765625 34.84375 -61.765625 C 43.414062 -61.765625 49.984375 -59.492188 54.546875 -54.953125 C 59.109375 -50.410156 61.390625 -43.742188 61.390625 -34.953125 C 61.390625 -31.765625 61.273438 -29.289062 61.046875 -27.53125 Z M 46.828125 -36.703125 C 46.671875 -41.328125 45.59375 -44.691406 43.59375 -46.796875 C 41.601562 -48.898438 38.6875 -49.953125 34.84375 -49.953125 C 27.144531 -49.953125 22.617188 -45.535156 21.265625 -36.703125 Z M 46.828125 -36.703125 "/></g></g></g><g fill="#ffffff" fill-opacity="1"><g transform="translate(328.205278, 133.096278)"><g><path d="M 8.734375 0 L 8.734375 -60.609375 L 23.515625 -60.609375 L 23.515625 -51.609375 L 24.671875 -51.375 C 26.140625 -54.75 28.0625 -57.222656 30.4375 -58.796875 C 32.820312 -60.378906 35.71875 -61.171875 39.125 -61.171875 C 42.570312 -61.171875 45.191406 -60.582031 46.984375 -59.40625 L 44.40625 -46.265625 L 43.25 -46.046875 C 42.257812 -46.453125 41.304688 -46.742188 40.390625 -46.921875 C 39.472656 -47.109375 38.359375 -47.203125 37.046875 -47.203125 C 32.796875 -47.203125 29.550781 -45.707031 27.3125 -42.71875 C 25.070312 -39.738281 23.953125 -34.953125 23.953125 -28.359375 L 23.953125 0 Z M 8.734375 0 "/></g></g></g><g fill="#ffffff" fill-opacity="1"><g transform="translate(375.731198, 133.096278)"><g><path d="M 15.5 0.5 C 13.550781 0.5 11.835938 0.101562 10.359375 -0.6875 C 8.878906 -1.476562 7.742188 -2.566406 6.953125 -3.953125 C 6.160156 -5.347656 5.765625 -6.925781 5.765625 -8.6875 C 5.765625 -10.445312 6.160156 -12.019531 6.953125 -13.40625 C 7.742188 -14.800781 8.878906 -15.898438 10.359375 -16.703125 C 11.835938 -17.515625 13.550781 -17.921875 15.5 -17.921875 C 17.476562 -17.921875 19.207031 -17.523438 20.6875 -16.734375 C 22.175781 -15.941406 23.3125 -14.847656 24.09375 -13.453125 C 24.882812 -12.066406 25.28125 -10.492188 25.28125 -8.734375 C 25.28125 -6.054688 24.390625 -3.847656 22.609375 -2.109375 C 20.835938 -0.367188 18.46875 0.5 15.5 0.5 Z M 15.5 0.5 "/></g></g></g><g fill="#ffffff" fill-opacity="1"><g transform="translate(406.826894, 133.096278)"><g/></g></g></svg>